<?xml version="1.0" encoding="UTF-8"?>
<svg width="1200pt" height="1200pt" version="1.1" viewBox="0 0 1200 1200" xmlns="http://www.w3.org/2000/svg">
 <path d="m147.52 595.5c-0.046875-6.6094 5.2969-12.047 11.906-12.094l367.55-2.3906c30.422-0.1875 55.172-25.031 55.172-55.312 0-30.516-24.938-55.312-55.547-55.312-34.781 0-63.141 28.219-63.141 62.859 0 6.6094-5.3906 12.422-12 12.422s-12-4.9688-12-11.578c0-48.75 39.094-87.703 87.141-87.703 43.875 0 79.547 35.578 79.547 79.312 0 43.453-35.438 79.031-78.984 79.312l-367.55 2.3906h-0.09375c-6.6094 0.046875-11.953-5.2969-12-11.906zm582.61 287.34c43.875 0 79.547-35.578 79.547-79.312 0-43.453-35.438-79.031-78.984-79.312l-367.55-2.3906h-0.09375c-6.6094 0-11.953 5.3438-12 11.906-0.046875 6.6094 5.2969 12.047 11.906 12.094l367.55 2.3906c30.422 0.1875 55.172 25.031 55.172 55.312 0 30.516-24.938 55.312-55.547 55.312-34.781 0-63.141-28.219-63.141-63.703 0-6.6094-5.3906-11.578-12-11.578s-12 5.8125-12 12.422c0 47.906 39.094 86.859 87.141 86.859zm-69-316.31v1.4531c0 6.6094 5.3906 12 12 12s12-5.3906 12-12v-1.4531c0-60.656 49.5-110.06 110.39-110.06 54 0 97.922 43.828 97.922 97.688 0 53.531-43.641 97.359-97.266 97.688l-598.31 3.8438c-6.6094 0.046875-11.953 5.4375-11.906 12.094 0.046874 6.6094 5.3906 11.906 12 11.906h0.09375l598.31-3.8438c66.797-0.375 121.13-54.984 121.13-121.69 0-67.078-54.703-121.69-121.92-121.69-74.156 0-134.44 60.141-134.44 134.06zm36.891-305.68c26.344-14.906 56.062-18.984 84.891-22.922 8.9531-1.2188 17.906-2.4375 26.719-3.9844 7.5-1.3594 15.094 1.2188 20.25 6.8906s6.9844 13.547 4.9219 21c-2.25 8.1562-4.125 16.547-6.0469 24.891-4.7812 20.812-9.6562 42.328-19.734 62.25-15.375 30.469-41.344 53.297-71.25 62.578-9.375 2.9062-18.844 4.3594-28.078 4.3594-19.594 0-38.25-6.4688-53.672-18.562-11.25 11.391-17.812 22.969-19.734 35.25-0.9375 5.9062-6.0469 10.125-11.812 10.125-0.60938 0-1.2656-0.046875-1.875-0.14062-6.5625-1.0312-11.016-7.1719-9.9844-13.734 3.0938-19.594 13.547-35.672 26.531-48.75l-0.46875-0.60938-0.375-3.4688c-4.7812-45.938 19.266-92.203 59.719-115.17zm-36.047 100.27c6.3281-4.4531 12.656-8.3906 18.516-11.812l10.172-5.9062c23.859-13.734 48.516-27.891 61.078-49.969 3.2812-5.7656 10.594-7.7812 16.359-4.5s7.7812 10.594 4.5 16.359c-15.797 27.703-43.359 43.547-69.984 58.875l-9.9844 5.7656c-6.5625 3.8438-12.281 7.6406-17.672 11.484 15.891 10.641 35.578 13.406 55.641 7.1719 23.719-7.3594 44.484-25.781 56.953-50.484 8.7188-17.344 13.125-36.516 17.766-56.812 1.7812-7.7812 3.5625-15.562 5.625-23.297-8.2031 1.4062-16.5 2.5312-24.797 3.6562-27.75 3.7969-54 7.4062-76.312 20.016-28.125 16.031-46.547 47.438-47.859 79.453zm228.37 340.5c44.953-10.922 94.125 6.4219 122.48 43.078 18.422 23.859 26.531 52.594 34.406 80.391 1.3125 4.6406 2.625 9.2812 3.9844 13.922 2.9062 9.8438 0.75 20.438-5.7656 28.406-5.9531 7.2188-14.812 11.344-24.094 11.344-1.0312 0-2.0625-0.046875-3.0938-0.14062l-12.516-1.125c-21.469-1.8281-43.688-3.75-65.062-11.016-32.344-10.969-58.547-33.469-71.906-61.688-13.125-27.656-11.578-57.656 2.9531-82.547-11.297-8.3438-23.953-14.438-37.781-14.625-6.6094-0.09375-11.906-5.5312-11.812-12.188s6-11.906 12.188-11.812c19.828 0.28125 37.219 8.4375 52.031 19.453l0.60938-0.60938zm104.48 116.39c-1.875 4.6875-6.375 7.5938-11.156 7.5938-1.4531 0-2.9531-0.28125-4.4062-0.84375-29.625-11.766-49.125-36.656-67.969-60.75l-7.3125-9.2812c-4.0781-5.1562-8.8125-10.688-13.969-16.172-8.4375 17.203-8.5312 37.031 0.46875 55.969 10.594 22.406 31.688 40.312 57.938 49.219 18.609 6.3281 38.438 8.0156 59.391 9.7969 4.2656 0.375 8.5312 0.75 12.75 1.125 3.6094 0.375 5.625-1.6875 6.375-2.5781 0.84375-1.0312 2.1562-3.2812 1.2656-6.3281-1.4062-4.7344-2.7188-9.4688-4.0781-14.203-7.5469-26.766-14.719-52.078-30.281-72.234-19.734-25.547-53.484-39.375-85.453-36.281 5.2969 5.6719 10.125 11.344 14.344 16.688l7.4531 9.4688c16.875 21.562 34.359 43.875 57.891 53.203 6.1875 2.4844 9.1875 9.4688 6.75 15.609zm-576.14-444.56h167.06c6.6094 0 12-5.3906 12-12s-5.3906-12-12-12h-167.06c-6.6094 0-12 5.3906-12 12s5.3906 12 12 12zm82.359-56.531h127.45c6.6094 0 12-5.3906 12-12s-5.3906-12-12-12h-127.45c-6.6094 0-12 5.3906-12 12s5.3438 12 12 12zm-31.875 507.71 0.375-3.4688 0.51562-0.65625c-12.938-13.078-23.391-29.109-26.484-48.703-1.0312-6.5625 3.4219-12.703 9.9844-13.734s12.703 3.4219 13.734 9.9844c1.9219 12.281 8.5312 23.906 19.828 35.297 22.688-17.766 52.266-23.438 81.562-14.297 29.859 9.2812 55.828 32.062 71.203 62.578 10.125 20.109 15.094 41.719 19.875 62.625 1.6406 7.1719 3.2812 14.344 5.1562 21.469 2.1094 8.1094 0 16.594-5.5781 22.734-4.6406 5.1094-11.156 7.9219-17.953 7.9219-1.3125 0-2.625-0.09375-3.9375-0.32812-7.875-1.3125-15.797-2.3906-23.719-3.4688-28.781-3.9375-58.5-8.0156-84.797-22.875-40.453-22.922-64.5-69.188-59.766-115.08zm129.94 87c-1.875 1.0781-3.9375 1.5938-5.9062 1.5938-4.1719 0-8.2031-2.1562-10.453-6.0469-12.562-22.031-37.219-36.234-61.078-49.969l-10.172-5.9062c-5.9062-3.4688-12.234-7.4062-18.609-11.906 1.3125 32.016 19.734 63.469 47.906 79.406 22.266 12.609 48.469 16.172 76.219 19.969 8.1562 1.125 16.312 2.25 24.375 3.5625-1.5938-7.9688-3.2812-15.375-4.9688-22.781-4.6875-20.438-9.0938-39.703-17.906-57.188-12.469-24.703-33.234-43.125-56.906-50.484-20.016-6.2812-39.703-3.4688-55.594 7.125 5.3906 3.8438 11.156 7.6406 17.719 11.531l9.9844 5.7656c26.625 15.328 54.188 31.172 69.984 58.875 3.1875 5.8594 1.1719 13.172-4.5938 16.453zm-361.5-72.469c0 6.6094 5.3906 12 12 12h167.02c6.6094 0 12-5.3906 12-12s-5.3906-12-12-12h-167.02c-6.6094 0-12 5.3906-12 12zm221.76 44.531h-127.45c-6.6094 0-12 5.3906-12 12s5.3906 12 12 12h127.45c6.6094 0 12-5.3906 12-12s-5.3438-12-12-12z"/>
</svg>
