<?xml version="1.0" encoding="UTF-8"?>
<svg width="1200pt" height="1200pt" version="1.1" viewBox="0 0 1200 1200" xmlns="http://www.w3.org/2000/svg">
 <path d="m837.37 338.26c-63.141-67.406-152.9-109.59-252.37-109.59-190.55 0-345.37 154.78-345.37 345.42 0 129.98 71.906 243.28 178.08 302.26v168.61c0 28.406 11.438 55.688 31.453 75.797 20.156 20.062 47.391 31.312 75.844 31.266 38.297-0.09375 82.219-0.1875 120.47-0.23438 59.062-0.14062 106.83-48.047 106.83-107.06v-168.37c106.17-58.969 178.18-172.26 178.18-302.26 0-40.031-6.8438-78.469-19.406-114.23l190.31-138.61c28.078-20.438 35.156-59.25 16.312-88.359-18.75-28.875-57.234-37.219-86.156-18.703zm-116.53 740.76h-271.78c4.0781 9.0938 9.7969 17.484 17.156 24.703 15.562 15.609 36.703 24.328 58.781 24.281l120.37-0.23438c33.562-0.09375 62.484-20.062 75.469-48.75zm7.4531-70.312h-286.6v36.234c0 3.375 0.23438 6.75 0.75 10.078h285.24c0.375-3.4219 0.60938-6.8438 0.60938-10.312zm-286.6-70.266v46.266h286.6v-46.266zm375-587.02c-58.406-60.891-140.63-98.766-231.71-98.766-177.37 0-321.37 144.05-321.37 321.42 0 123.37 69.609 230.63 171.74 284.48 3.9375 2.0625 6.3281 6.1875 6.3281 10.641v45.234h286.6v-45.234c0-4.4531 2.4844-8.5781 6.3281-10.641 102.14-53.859 171.84-161.11 171.84-284.48 0-34.688-5.5312-68.109-15.703-99.422l-151.31 110.2c-34.453 88.594-109.31 111.05-176.29 110.72-65.625-0.28125-123.1-22.734-123.1-22.734-3.8438-1.5-6.75-4.875-7.4531-8.9062-0.84375-4.0781 0.60938-8.25 3.6094-11.062 42.094-38.859 47.016-76.125 55.312-108.8 6.4688-25.359 14.625-48.281 37.781-68.25 50.625-43.922 108.47-28.922 127.45-22.172zm-166.64 125.29c-12.516-4.7812-61.922-20.109-105.14 17.25-24 20.812-27.609 46.031-34.453 73.547-6.8438 27.703-15.844 57.656-44.016 88.875 20.766 6.1875 57.094 15.047 96.844 15.188 57.562 0.28125 122.39-18.047 152.86-92.906zm-462.61 88.547h-103.59c-6.5625 0-12 5.3906-12 12 0 6.6562 5.4375 12 12 12h103.59c6.6094 0 12-5.3438 12-12 0-6.6094-5.3906-12-12-12zm891 0h-103.59c-6.5625 0-12 5.3906-12 12 0 6.6562 5.4375 12 12 12h103.59c6.6094 0 12-5.3438 12-12 0-6.6094-5.3906-12-12-12zm-287.39-168.94-116.3 74.344s57.938 89.438 57.938 89.438l111.75-81.375-53.156-81.938c0-0.1875-0.14062-0.32812-0.23438-0.46875zm72.797 68.25 223.36-162.74c17.719-12.938 22.312-37.453 10.312-55.875v-0.046876c-11.531-17.766-35.297-22.922-53.062-11.531l-233.16 149.02c0 0.09375 0.14062 0.23437 0.14062 0.32812zm-615.1-104.58-89.531-51.75c-5.7656-3.3281-13.078-1.3594-16.453 4.4062-3.3281 5.7188-1.3125 13.078 4.4531 16.359l89.531 51.75c5.7656 3.3281 13.172 1.3594 16.453-4.3594 3.3281-5.7656 1.3125-13.078-4.4531-16.406zm155.86-147.05-51.703-89.625c-3.375-5.7656-10.688-7.7344-16.453-4.4062-5.625 3.3281-7.6875 10.641-4.3125 16.406l51.703 89.625c3.375 5.7188 10.688 7.6875 16.453 4.3594 5.625-3.2812 7.6875-10.641 4.3125-16.359zm413.76 12 51.844-89.625c3.2344-5.7656 1.3125-13.078-4.4531-16.406-5.7188-3.3281-13.078-1.3594-16.406 4.4062l-51.75 89.625c-3.2344 5.7188-1.3125 13.078 4.4531 16.359 5.7656 3.3281 13.078 1.3594 16.312-4.3594zm-205.18-61.453v-103.5c0-6.6094-5.4375-12-12-12-6.75 0-12 5.3906-12 12v103.5c0 6.6094 5.25 12 12 12 6.5625 0 12-5.3906 12-12z" fill-rule="evenodd"/>
</svg>
