<?xml version="1.0" encoding="UTF-8"?>
<svg width="1200pt" height="1200pt" version="1.1" viewBox="0 0 1200 1200" xmlns="http://www.w3.org/2000/svg">
 <path d="m902.16 1012.7h-572.81c-53.156 0-96.234-43.078-96.234-96.188v-572.95c0-53.156 43.078-96.234 96.234-96.234h572.81c53.016 0.32812 95.906 43.219 96.234 96.234v572.44c-0.046875 53.203-43.031 96.375-96.234 96.703zm-572.81-705.71c-19.922 0-36.094 16.172-36.094 36.094v572.9c0 19.922 16.172 36.094 36.094 36.094h572.81c19.922 0 36.094-16.172 36.094-36.094v-572.44c0-19.922-16.172-36.094-36.094-36.094z"/>
 <path d="m456 416.81c-16.594 0-30.047-13.453-30.047-30.094v-193.4c0-16.594 13.453-30.094 30.047-30.094 16.641 0 30.094 13.5 30.094 30.094v193.4c0.046875 8.0156-3.1406 15.656-8.7656 21.328-5.6719 5.625-13.312 8.7656-21.328 8.7656z"/>
 <path d="m774.89 416.81c-16.594 0-30.047-13.453-30.047-30.094v-193.4c0-16.594 13.453-30.094 30.047-30.094 16.641 0 30.094 13.5 30.094 30.094v193.4c0 7.9688-3.1875 15.656-8.8125 21.281s-13.312 8.8125-21.281 8.8125z"/>
 <path d="m968.34 542.26h-705.66c-16.594 0-30.047-13.453-30.047-30.047 0-16.641 13.453-30.094 30.047-30.094h705.66c16.594 0 30.047 13.453 30.047 30.094 0 16.594-13.453 30.047-30.047 30.047z"/>
</svg>
