<?xml version="1.0" encoding="UTF-8"?>
<svg width="1200pt" height="1200pt" version="1.1" viewBox="0 0 1200 1200" xmlns="http://www.w3.org/2000/svg">
 <path d="m681.71 679.54-54.676-68.703c2.9453-6.0117 5.6836-12.227 8.1797-18.648l91.605-10.426c8.4648-0.98047 14.887-8.1367 14.887-16.645v-114.06c0-8.5039-6.418-15.664-14.844-16.645l-87.355-10.02c-2.125-6.2969-4.5781-12.637-7.3203-18.852l57.418-72.219c5.2773-6.6641 4.7422-16.234-1.2695-22.289l-80.648-80.652c-6.0938-6.0117-15.703-6.5-22.289-1.2695l-68.746 54.637c-5.9297-2.9023-12.145-5.6445-18.566-8.1797l-10.469-91.605c-0.98047-8.4219-8.1367-14.844-16.645-14.844h-114.06c-8.5039 0-15.664 6.418-16.645 14.844l-10.02 87.312c-6.2969 2.125-12.594 4.5781-18.852 7.3203l-72.219-57.418c-6.6641-5.2344-16.234-4.7422-22.289 1.2695l-80.645 80.645c-6.0117 6.0508-6.543 15.621-1.2695 22.289l54.637 68.746c-2.9453 5.9297-5.6445 12.145-8.1797 18.605l-91.605 10.469c-8.4219 0.98047-14.844 8.1367-14.844 16.645v114.06c0 8.5039 6.418 15.664 14.887 16.645l87.273 9.9766c2.207 6.3789 4.6211 12.676 7.3203 18.895l-57.418 72.18c-5.2773 6.6641-4.7422 16.234 1.2695 22.289l80.688 80.645c6.0508 5.9727 15.621 6.4609 22.289 1.2695l68.703-54.637c5.9297 2.9453 12.145 5.6445 18.605 8.1797l10.469 91.648c0.98047 8.4219 8.1367 14.844 16.645 14.844h114.06c8.5039 0 15.664-6.418 16.645-14.887l9.9766-87.312c6.2969-2.125 12.637-4.5781 18.852-7.3203l72.219 57.418c6.625 5.1953 16.195 4.7031 22.289-1.2695l80.688-80.645c6.0117-6.0508 6.543-15.621 1.2695-22.285zm-95.086 68.66-68.582-54.512c-5.0312-3.9688-11.902-4.7422-17.75-1.9219-11.164 5.3984-22.574 9.8164-33.941 13.047-6.5 1.8828-11.246 7.4844-12.023 14.23l-9.4883 83.266h-84.203l-9.9375-87.027c-0.73438-6.3789-5.0703-11.777-11.164-13.906-12.023-4.1719-23.27-9.1211-33.332-14.723-5.9297-3.3125-13.293-2.6562-18.566 1.5156l-65.516 52.102-59.543-59.504 54.559-68.582c4.0078-5.0703 4.7422-11.98 1.9219-17.789-5.3164-10.879-9.7344-22.328-13.129-33.941-1.8398-6.5-7.4453-11.207-14.191-11.98l-83.223-9.4883 0.003906-84.207 86.984-9.9375c6.3789-0.73438 11.777-5.0703 13.906-11.164 4.1719-12.023 9.1211-23.27 14.723-33.332 3.3125-5.9297 2.6992-13.25-1.5156-18.566l-52.102-65.555 59.504-59.504 68.582 54.512c5.0703 4.0078 11.98 4.7422 17.75 1.9648 11.246-5.4805 22.656-9.8555 33.941-13.086 6.5-1.8828 11.246-7.4844 12.023-14.191l9.5312-83.266h84.203l9.9375 86.984c0.73438 6.3789 5.0703 11.777 11.164 13.906 12.023 4.1719 23.23 9.1211 33.289 14.723 5.9727 3.3555 13.293 2.7383 18.566-1.5156l65.555-52.102 59.504 59.504-54.512 68.582c-4.0078 5.0703-4.7422 11.941-1.9219 17.75 5.3984 11.164 9.8164 22.574 13.047 33.941 1.8828 6.5 7.4844 11.246 14.191 12.023l83.305 9.5312v84.164l-86.984 9.9375c-6.418 0.73437-11.859 5.1133-13.945 11.207-4.0898 11.82-9.0391 23.023-14.723 33.289-3.3125 5.9297-2.6992 13.25 1.5156 18.566l52.141 65.555z"/>
 <path d="m408.32 366.65c-74.879 0-135.81 60.934-135.81 135.81 0 74.922 60.934 135.86 135.81 135.86 74.922 0 135.86-60.934 135.86-135.86-0.003907-74.875-60.938-135.81-135.86-135.81zm0 238.14c-56.395 0-102.28-45.883-102.28-102.32 0-56.395 45.883-102.28 102.28-102.28 56.434 0 102.32 45.883 102.32 102.28-0.003906 56.434-45.887 102.32-102.32 102.32z"/>
 <path d="m1110.2 748.25-55.781-6.3789c-0.81641-2.332-1.7578-4.6602-2.6992-6.9922l36.887-46.332c5.2773-6.6641 4.7422-16.234-1.2695-22.289l-54.637-54.637c-6.0508-6.0117-15.664-6.5-22.289-1.2695l-43.883 34.926c-2.2891-1.0625-4.5781-2.0859-6.8711-3.0273l-6.7461-58.891c-0.98047-8.4219-8.1367-14.844-16.645-14.844h-77.254c-8.5039 0-15.664 6.418-16.645 14.887l-6.3398 55.781c-2.332 0.81641-4.6602 1.7188-6.9531 2.6562l-46.414-36.848c-6.707-5.2344-16.234-4.7422-22.289 1.2695l-54.594 54.594c-6.0117 6.0508-6.543 15.621-1.2695 22.289l34.883 43.922c-1.0234 2.25-2.043 4.5391-2.9844 6.8281l-58.891 6.7461c-8.4219 0.98047-14.844 8.1367-14.844 16.645v77.254c0 8.5039 6.418 15.664 14.844 16.645l55.781 6.3789c0.85938 2.332 1.7578 4.6602 2.6992 6.9531l-36.887 46.375c-5.2773 6.6641-4.7422 16.234 1.2695 22.289l54.637 54.637c6.0508 5.9727 15.621 6.4609 22.289 1.2695l43.883-34.926c2.2891 1.0625 4.5781 2.0859 6.8711 3.0273l6.7461 58.848c0.98047 8.4219 8.1367 14.844 16.645 14.844h77.254c8.5039 0 15.664-6.418 16.645-14.844l6.3789-55.781c2.332-0.85938 4.6602-1.7578 6.9922-2.6992l46.332 36.887c6.625 5.1953 16.195 4.7031 22.289-1.2695l54.637-54.637c6.0117-6.0508 6.543-15.621 1.2695-22.289l-34.926-43.883c1.0625-2.2891 2.0859-4.5781 3.0273-6.8711l58.809-6.707c8.4648-0.98047 14.887-8.1367 14.887-16.645v-77.254c0-8.5-6.418-15.656-14.844-16.637zm-18.691 78.93-54.105 6.1758c-6.418 0.73438-11.859 5.1133-13.945 11.207-2.6172 7.5273-5.7656 14.805-9.5703 21.676-3.3125 5.9297-2.6992 13.25 1.5156 18.566l32.309 40.609-33.496 33.496-42.652-33.941c-5.0312-3.9688-11.98-4.7422-17.789-1.9219-7.0742 3.4766-14.434 6.3398-22.082 8.5039-6.5 1.8828-11.246 7.4844-12.023 14.191l-5.8906 51.609h-47.398l-6.1758-54.105c-0.73438-6.3789-5.0703-11.777-11.125-13.906-7.5664-2.6172-14.887-5.7656-21.758-9.6094-5.9297-3.3125-13.25-2.6992-18.566 1.5156l-40.609 32.309-33.496-33.496 33.941-42.652c4.0078-5.0312 4.7422-11.941 1.9648-17.75-3.4375-7.0742-6.3398-14.434-8.5859-22.164-1.8398-6.5-7.4453-11.207-14.148-11.98l-51.609-5.8906v-47.398l54.145-6.1758c6.3789-0.73438 11.777-5.0703 13.906-11.125 2.6172-7.6055 5.8086-14.926 9.6094-21.84 3.2305-5.8906 2.6172-13.168-1.5547-18.484l-32.266-40.609 33.453-33.453 42.695 33.902c5.0703 3.9688 11.98 4.7422 17.75 1.9648 7.0352-3.4375 14.395-6.3398 22.082-8.5039 6.543-1.8398 11.289-7.4844 12.062-14.23l5.8906-51.609h47.359l6.1758 54.145c0.73437 6.3789 5.0703 11.777 11.125 13.906 7.5664 2.6172 14.887 5.7656 21.758 9.6094 5.9297 3.3945 13.293 2.6172 18.566-1.5156l40.609-32.309 33.496 33.496-33.941 42.652c-4.0078 5.0703-4.7422 11.98-1.9219 17.789 3.4375 7.0352 6.3398 14.395 8.5039 22.043 1.8398 6.543 7.4844 11.289 14.191 12.062l51.609 5.8906-0.003906 47.352z"/>
 <path d="m893.83 702.28c-53.695 0-97.414 43.719-97.414 97.414 0 53.695 43.719 97.414 97.414 97.414 53.695 0 97.414-43.719 97.414-97.414 0-53.695-43.719-97.414-97.414-97.414zm0 161.29c-35.254 0-63.879-28.625-63.879-63.879s28.625-63.879 63.879-63.879c35.254 0 63.879 28.625 63.879 63.879s-28.625 63.879-63.879 63.879z"/>
</svg>
