<?xml version="1.0" encoding="UTF-8"?>
<svg width="1200pt" height="1200pt" version="1.1" viewBox="0 0 1200 1200" xmlns="http://www.w3.org/2000/svg">
 <path d="m112.5 1106.2v35.625c0 15.938 6.5625 30.938 17.812 42.188 9.375 9.375 22.5 15 35.625 15.938h852.19c29.062-0.9375 52.5-25.312 51.562-54.375v-0.9375-45c-12.188 2.8125-24.375 4.6875-37.5 5.625v39.375c0 8.4375-5.625 17.812-14.062 17.812h-852.19c-3.75 0-6.5625-1.875-9.375-4.6875-3.75-3.75-6.5625-9.375-6.5625-15.938v-35.625z"/>
 <path d="m918.75 768.75h65.625v-468.75c0-20.625-16.875-37.5-37.5-37.5h-712.5c-20.625 0-37.5 16.875-37.5 37.5v468.75h60.938l182.81-175.31 182.81 175.31h54.375l-49.688-47.812 121.88-105zm-317.81-74.062-134.06-128.44c-14.062-14.062-37.5-14.062-51.562 0l-180.94 172.5v-438.75h712.5v443.44l-171.56-155.62c-14.062-13.125-35.625-13.125-49.688-0.9375z"/>
 <path d="m609.38 393.75c-30.938 0-56.25 25.312-56.25 56.25s25.312 56.25 56.25 56.25 56.25-25.312 56.25-56.25-25.312-56.25-56.25-56.25zm0 75c-10.312 0-18.75-8.4375-18.75-18.75s8.4375-18.75 18.75-18.75 18.75 8.4375 18.75 18.75-8.4375 18.75-18.75 18.75z"/>
 <path d="m609.38 375c10.312 0 18.75-8.4375 18.75-18.75v-18.75c0-10.312-8.4375-18.75-18.75-18.75s-18.75 8.4375-18.75 18.75v18.75c0 10.312 8.4375 18.75 18.75 18.75z"/>
 <path d="m675.94 402.19c4.6875 0 9.375-1.875 13.125-5.625l13.125-13.125c7.5-7.5 7.5-18.75 0-26.25s-18.75-7.5-26.25 0l-13.125 13.125c-7.5 7.5-7.5 18.75 0 26.25 2.8125 3.75 7.5 5.625 13.125 5.625z"/>
 <path d="m721.88 431.25h-18.75c-10.312 0-18.75 8.4375-18.75 18.75s8.4375 18.75 18.75 18.75h18.75c10.312 0 18.75-8.4375 18.75-18.75s-8.4375-18.75-18.75-18.75z"/>
 <path d="m689.06 503.44c-7.5-7.5-18.75-7.5-26.25 0s-7.5 18.75 0 26.25l13.125 13.125c7.5 7.5 18.75 7.5 26.25 0s7.5-18.75 0-26.25z"/>
 <path d="m609.38 525c-10.312 0-18.75 8.4375-18.75 18.75v18.75c0 10.312 8.4375 18.75 18.75 18.75s18.75-8.4375 18.75-18.75v-18.75c0-10.312-8.4375-18.75-18.75-18.75z"/>
 <path d="m529.69 503.44-13.125 13.125c-7.5 7.5-7.5 18.75 0 26.25s18.75 7.5 26.25 0l13.125-13.125c7.5-7.5 7.5-18.75 0-26.25-6.5625-7.5-18.75-7.5-26.25 0z"/>
 <path d="m534.38 450c0-10.312-8.4375-18.75-18.75-18.75h-18.75c-10.312 0-18.75 8.4375-18.75 18.75s8.4375 18.75 18.75 18.75h18.75c10.312 0 18.75-8.4375 18.75-18.75z"/>
 <path d="m529.69 396.56c7.5 7.5 18.75 7.5 26.25 0s7.5-18.75 0-26.25l-13.125-13.125c-7.5-7.5-18.75-7.5-26.25 0s-7.5 18.75 0 26.25z"/>
 <path d="m28.125 1050c0 10.312 8.4375 18.75 18.75 18.75h975c82.5 0 150-67.5 150-150v-225c0-1.875 0-4.6875-0.9375-6.5625-6.5625-49.688-45-90.938-102.19-107.81v-523.12c0.9375-15.938-3.75-31.875-15-44.062-7.5-7.5-17.812-12.188-29.062-12.188h-621.56c-15 0-29.062 5.625-40.312 15l-217.5 181.88c-17.812 10.312-30 28.125-31.875 48.75l-0.9375 523.12h37.5v-523.12c0-4.6875 6.5625-13.125 14.062-17.812 0.9375 0 0.9375-0.9375 1.875-0.9375 1.875-0.9375 4.6875-1.875 7.5-1.875h158.44c28.125 0 50.625-21.562 50.625-49.688l1.875-123.75c0-7.5 9.375-14.062 19.688-14.062h621.56c1.875 0 2.8125 0 2.8125 0.9375 2.8125 5.625 4.6875 11.25 3.75 17.812v537.19 0.9375 174.38c14.062-1.875 26.25-7.5 37.5-15.938v-134.06c38.438 15 63.75 44.062 65.625 79.688-2.8125 60-51.562 107.81-112.5 107.81h-975.94c-10.312 0-18.75 8.4375-18.75 18.75s8.4375 18.75 18.75 18.75h975c43.125 0 84.375-18.75 112.5-50.625v125.62c0 61.875-50.625 112.5-112.5 112.5h-975c-10.312 0-18.75 8.4375-18.75 18.75zm303.75-862.5h-117.19l132.19-109.69-0.9375 96.562c0 7.5-5.625 13.125-14.062 13.125 0.9375 0 0.9375 0 0 0z"/>
</svg>
