<?xml version="1.0" encoding="UTF-8"?>
<svg width="1200pt" height="1200pt" version="1.1" viewBox="0 0 1200 1200" xmlns="http://www.w3.org/2000/svg">
 <path d="m596.4 102.48c-131.94 0.03125-258.47 52.473-351.75 145.79-93.277 93.316-145.67 219.87-145.65 351.81 0.019531 131.95 52.453 258.48 145.76 351.77 93.309 93.285 219.86 145.69 351.8 145.68 131.95-0.011719 258.48-52.434 351.77-145.73 93.297-93.301 145.71-219.84 145.71-351.79-0.15625-131.92-52.641-258.39-145.94-351.67-93.293-93.27-219.78-145.73-351.7-145.85zm0 971.04c-125.58-0.03125-246-49.945-334.78-138.76-88.781-88.816-138.64-209.26-138.62-334.84 0.019531-125.58 49.926-246.01 138.73-334.79s209.25-138.66 334.82-138.65 246.01 49.902 334.8 138.7c88.793 88.801 138.68 209.24 138.68 334.82-0.125 125.57-50.07 245.95-138.87 334.73-88.801 88.777-209.2 138.7-334.77 138.79z"/>
 <path d="m725.4 880.2h-88.199v-364.2c0-3.1836-1.2617-6.2344-3.5156-8.4844-2.25-2.25-5.3008-3.5156-8.4844-3.5156h-100.32c-6.625 0-12 5.3711-12 12s5.375 12 12 12h88.32v352.2h-88.32c-6.625 0-12 5.375-12 12 0 6.6289 5.375 12 12 12h200.52c6.6289 0 12-5.3711 12-12 0-6.625-5.3711-12-12-12z"/>
 <path d="m600 457.44c16.613 0 32.547-6.6016 44.293-18.348 11.746-11.746 18.348-27.68 18.348-44.293s-6.6016-32.547-18.348-44.293c-11.746-11.75-27.68-18.348-44.293-18.348s-32.547 6.5977-44.293 18.348c-11.746 11.746-18.348 27.68-18.348 44.293s6.6016 32.547 18.348 44.293c11.746 11.746 27.68 18.348 44.293 18.348zm0-101.28c10.246 0 20.078 4.0703 27.324 11.316 7.2461 7.2461 11.316 17.074 11.316 27.324 0 10.246-4.0703 20.074-11.316 27.32-7.2461 7.2461-17.078 11.32-27.324 11.32s-20.078-4.0742-27.324-11.32c-7.2461-7.2461-11.316-17.074-11.316-27.32 0.03125-10.238 4.1133-20.051 11.352-27.289 7.2422-7.2383 17.051-11.32 27.289-11.352z"/>
</svg>
