<?xml version="1.0" encoding="UTF-8"?>
<svg width="1200pt" height="1200pt" version="1.1" viewBox="0 0 1200 1200" xmlns="http://www.w3.org/2000/svg">
 <path d="m683.33 356c0 46.023-37.309 83.332-83.332 83.332s-83.332-37.309-83.332-83.332 37.309-83.332 83.332-83.332 83.332 37.309 83.332 83.332z"/>
 <path d="m669.33 584.32v274.67c0 24.77-13.215 47.656-34.664 60.043-21.453 12.387-47.883 12.387-69.336 0-21.449-12.387-34.664-35.273-34.664-60.043v-274.67c0-24.77 13.215-47.66 34.664-60.043 21.453-12.387 47.883-12.387 69.336 0 21.449 12.383 34.664 35.273 34.664 60.043z"/>
 <path d="m600 0c-331.36 0-600 268.64-600 600s268.64 600 600 600 600-268.64 600-600-268.64-600-600-600zm348.83 948.83c-61.043 62.09-137.43 106.92-221.41 129.94-83.98 23.012-172.55 23.391-256.72 1.0938-84.168-22.297-160.94-66.477-222.51-128.05s-105.75-138.34-128.05-222.51c-22.297-84.172-21.918-172.74 1.0938-256.72 23.016-83.977 67.848-160.37 129.94-221.41 61.043-62.09 137.43-106.92 221.41-129.94 83.98-23.012 172.55-23.391 256.72-1.0938 84.168 22.297 160.94 66.477 222.51 128.05s105.75 138.34 128.05 222.51c22.297 84.172 21.918 172.74-1.0938 256.72-23.016 83.977-67.848 160.37-129.94 221.41z"/>
 <path d="m600 0c-331.36 0-600 268.64-600 600s268.64 600 600 600 600-268.64 600-600-268.64-600-600-600zm348.83 948.83c-61.043 62.09-137.43 106.92-221.41 129.94-83.98 23.012-172.55 23.391-256.72 1.0938-84.168-22.297-160.94-66.477-222.51-128.05s-105.75-138.34-128.05-222.51c-22.297-84.172-21.918-172.74 1.0938-256.72 23.016-83.977 67.848-160.37 129.94-221.41 61.043-62.09 137.43-106.92 221.41-129.94 83.98-23.012 172.55-23.391 256.72-1.0938 84.168 22.297 160.94 66.477 222.51 128.05s105.75 138.34 128.05 222.51c22.297 84.172 21.918 172.74-1.0938 256.72-23.016 83.977-67.848 160.37-129.94 221.41z"/>
</svg>
