<?xml version="1.0" encoding="UTF-8"?>
<svg width="1200pt" height="1200pt" version="1.1" viewBox="0 0 1200 1200" xmlns="http://www.w3.org/2000/svg">
 <path d="m868.55 737.53c54.703-17.766 91.453-68.156 91.453-125.53s-48.234-228-132-228-132 173.06-132 228 36.703 107.77 91.453 125.53l16.547 5.3906v133.08h-360v-290.06l113.77 113.77c9.8438 9.8438 26.625 10.688 36 0.375 3.9375-4.4531 6.2344-10.078 6.2344-16.078 0-6.375-2.5312-12.469-7.0781-16.922l-148.92-148.92v-196.08l102 102c8.5312 8.5312 22.078 10.547 31.781 3.6094 12.375-8.8594 13.453-26.297 3.1406-36.609l-103.08-103.08c-17.297-17.297-40.781-25.922-65.531-23.625-20.062 1.7812-38.391 11.625-52.547 25.922l-100.78 100.78c-10.312 10.312-9.2344 27.703 3.1406 36.609 9.7031 6.9375 23.297 4.9219 31.781-3.6094l102.14-102.14v196.08l-148.92 149.06c-4.5469 4.5469-7.0781 10.547-7.0781 16.922 0 6 2.1562 11.625 6.2344 16.078 9.375 10.219 26.156 9.4688 36-0.375l113.77-113.77v290.06h-130.69c-12 0-23.062 8.1562-24.938 19.922-2.5312 15 9.1406 28.078 23.625 28.078h672c14.531 0 26.156-13.078 23.625-28.078-1.9219-11.766-13.078-19.922-24.938-19.922h-82.688v-133.08l16.547-5.3906zm-40.547-41.531c-46.312 0-84-37.688-84-84 0-57.375 40.547-150.61 69.234-173.06 8.625-6.8438 20.859-6.8438 29.625 0 28.547 22.453 69.234 115.69 69.234 173.06 0 46.312-37.688 84-84 84z"/>
</svg>
