<?xml version="1.0" encoding="UTF-8"?>
<svg width="1200pt" height="1200pt" version="1.1" viewBox="0 0 1200 1200" xmlns="http://www.w3.org/2000/svg">
 <path d="m1127.7 390.84-209.11-62.062c-0.14062-0.046875-0.32812-0.046875-0.46875-0.046875-1.3594-0.375-2.8125-0.60938-4.3125-0.60938h-0.1875c-1.5 0-2.9531 0.28125-4.3125 0.65625-0.14062 0.046875-0.32812 0.046875-0.46875 0.046875l-27.516 8.1562c-2.4375-153.14-127.69-276.98-281.34-276.98-155.06 0-281.26 126.28-281.26 281.48 0 12.609 0.89062 25.125 2.5312 37.5l-35.062 10.453-204.19-60.609c-5.2031-1.5469-10.781-0.51562-15.141 2.6719-4.3594 3.2344-6.8906 8.3438-6.8906 13.734v715.55c0 7.5938 4.9688 14.297 12.281 16.453l209.11 62.062c0.14062 0.046875 0.32812 0.046875 0.46875 0.046875 1.3594 0.375 2.8125 0.60938 4.3125 0.60938h0.1875c1.5 0 2.9531-0.28125 4.3125-0.65625 0.14062-0.046875 0.32812-0.046875 0.46875-0.046875l204.47-60.609 204.24 60.609c0.14062 0.046875 0.32812 0.046875 0.46875 0.046875 1.3594 0.375 2.8125 0.60938 4.3125 0.65625h0.1875c1.5 0 2.9062-0.28125 4.3125-0.65625 0.14062-0.046875 0.32812 0 0.46875-0.046875l204.19-60.609 204.24 60.609c1.5938 0.46875 3.2344 0.70312 4.875 0.70312 3.6562 0 7.2656-1.1719 10.266-3.4219 4.3594-3.2344 6.8906-8.3438 6.8906-13.734v-715.55c0-7.5938-4.9688-14.297-12.281-16.453zm-540.56 359.76c3.2344 3.6562 7.9219 5.7656 12.844 5.7656s9.5625-2.1094 12.797-5.7656l98.203-110.48c35.859 16.875 56.203 40.547 56.203 66.047 0 48.141-76.594 88.781-167.21 88.781-90.656 0-167.21-40.641-167.21-88.781 0-25.453 20.391-49.125 56.344-66l98.062 110.44zm-74.438 66.938c26.297 7.5469 55.828 11.719 87.281 11.719 31.547 0 61.172-4.2188 87.516-11.812v282.37l-174.79-51.891v-230.48zm209.11-12.656c48.703-22.266 79.688-57.844 79.688-98.672 0-36.938-24.094-69.844-66.891-92.578l73.875-83.109c39.891-43.922 64.547-98.859 71.156-157.22l16.969-5.0156v679.78l-174.79 51.891zm-121.82-710.58c136.31 0 247.18 110.86 247.18 247.18 0 5.5312-0.23438 11.062-0.60938 16.547-0.046875 0.23438-0.046875 0.46875-0.046875 0.65625-3.8438 55.219-26.016 107.53-63.469 148.78-0.046875 0.046874-0.09375 0.09375-0.14062 0.14062l-88.547 99.609c-0.1875 0.1875-0.375 0.42187-0.5625 0.65625l-93.797 105.52-92.484-104.16c-0.65625-0.84375-1.3125-1.6406-2.1094-2.3438l-88.219-99.375c-41.391-45.516-64.125-104.48-64.125-166.03 0-136.31 110.77-247.18 246.94-247.18zm-208.31 436.13 73.875 83.203c-42.938 22.781-67.078 55.688-67.078 92.578 0 40.922 31.078 76.547 79.969 98.812v243l-175.03 51.891v-679.78l24.609-7.3125c11.391 43.5 33 83.859 63.703 117.66zm-297.37-162.19 174.79 51.844v679.78l-174.79-51.844zm1011.4 731.63-174.79-51.844v-679.78l174.79 51.891v679.78zm-505.69-632.81c76.922 0 139.45-62.578 139.45-139.45 0-76.781-62.578-139.22-139.45-139.22-76.781 0-139.22 62.438-139.22 139.22 0 76.922 62.438 139.45 139.22 139.45zm0-244.36c57.984 0 105.19 47.062 105.19 104.91 0 57.984-47.156 105.19-105.19 105.19-57.844 0-104.91-47.156-104.91-105.19 0-57.844 47.062-104.91 104.91-104.91z"/>
</svg>
