<?xml version="1.0" encoding="UTF-8"?>
<svg width="1200pt" height="1200pt" version="1.1" viewBox="0 0 1200 1200" xmlns="http://www.w3.org/2000/svg">
 <path d="m651.14 867.56c108.05-72.047 288.32-211.31 303.74-350.21 5.0625-45.984-8.3438-93.094-49.875-139.08-62.438-69.188-165.24-57.375-229.03 6.4219-13.453 13.453-36.141 13.781-49.828-0.28125-45.094-46.172-117.8-67.688-178.82-41.906-18.75 7.9219-35.812 19.969-50.062 35.719-83.625 92.672-53.578 190.5 14.859 279.61 62.672 81.75 157.74 155.48 239.06 209.68zm319.5 198.89c0 14.109-11.484 25.547-25.547 25.547s-25.547-11.438-25.547-25.547v-119.2c0-27.281 6.8906-51.375 21.328-74.719 5.2031-8.3906 14.625-23.391 23.812-38.109 93.609-149.48 162.61-259.78 94.031-465.66-34.125-102.42-107.81-189.28-207.14-240-95.906-49.031-213.19-63.234-341.16-29.25-120.84 32.109-208.45 95.156-259.6 174.32-52.359 81-66.562 179.02-40.312 277.78 8.2031 30.938-20.062 65.719-49.875 102.61-22.734 28.031-46.688 57.609-47.812 74.859-0.5625 8.0156 12.844 14.391 53.484 17.062 29.391 1.9219 52.266 25.594 53.344 54.984 3.2344 91.641 13.828 146.21 51.797 175.6 40.406 31.266 114.84 40.688 245.06 41.297 11.016 0.046875 20.438 7.125 23.953 16.969l35.812 101.06c4.7344 13.266-2.2031 27.844-15.516 32.484-13.219 4.6875-27.797-2.2969-32.438-15.562l-29.906-84.234c-131.02-1.5938-209.29-14.016-257.95-51.703-53.344-41.25-67.781-106.73-71.531-214.08-0.09375-3.1406-2.625-5.7188-5.7188-5.9062-78.75-5.2031-103.69-32.859-101.11-71.109 2.2031-33.516 31.453-69.609 59.156-103.78 21.422-26.438 41.719-51.422 40.078-57.516-29.906-112.59-13.406-225.28 46.688-318.28 60.75-94.078 164.16-165.61 302.86-199.45 136.92-33.375 262.26-15.328 363.94 36.609 111.28 56.859 193.82 154.31 232.18 269.34 76.125 228.42 1.6875 347.39-99.188 508.55-6.3281 10.078-12.797 20.344-23.625 37.922-9.3281 15.188-13.453 30-13.453 48v119.2zm-520.69-454.03c-14.062 0-25.453-11.438-25.453-25.547s11.391-25.547 25.453-25.547h61.453l41.625-93.891c9.6562-21.891 40.781-19.219 47.672 2.5781l51.797 163.36 56.953-118.36c8.3438-17.531 32.156-19.266 43.312-4.1719l37.266 50.484h48.891c14.156 0 25.547 11.438 25.547 25.547 0 14.109-11.391 25.547-25.547 25.547l-61.688-0.09375c-7.7344 0-15.469-3.5625-20.438-10.312l-19.875-26.906-65.531 136.31c-10.312 24.047-41.391 20.109-48.234-1.4062l-50.812-160.36-20.531 46.312c-3.6562 9.6562-12.938 16.5-23.859 16.5h-78.047zm345.89 211.64c-47.438 38.953-94.359 71.438-130.4 94.922-8.2031 5.625-19.359 6.0938-28.172 0.32812-125.81-81.844-322.55-233.21-340.64-396.42-6.5625-59.859 10.312-120.56 62.906-178.74 60.094-66.516 151.82-80.297 232.78-44.016 21.422 9.6094 41.484 22.453 58.781 37.828 84.656-74.203 212.9-80.906 291.56 6.1875 101.86 112.78 70.922 236.53-12 344.63-38.344 49.875-86.766 95.859-134.81 135.28z" fill-rule="evenodd"/>
</svg>
