<?xml version="1.0" encoding="UTF-8"?>
<svg width="1200pt" height="1200pt" version="1.1" viewBox="0 0 1200 1200" xmlns="http://www.w3.org/2000/svg">
 <path d="m1185.5 1029.1-431.52-877.57c-3.6367-6.0625-9.6953-9.6953-15.758-9.6953-7.2734 0-13.332 3.6367-15.758 9.6953l-232.73 472.73-117.57-231.52c-3.6367-6.0625-9.6953-9.6953-15.758-9.6953s-13.332 3.6367-15.758 9.6953l-322.42 636.36c-4.8477 8.4844-1.2109 19.395 8.4844 24.242 2.4258 1.2109 4.8477 2.4258 8.4844 2.4258 6.0625 0 13.332-3.6367 15.758-9.6953l202.43-398.79 20.605 31.516c3.6367 6.0625 10.91 7.2734 16.969 3.6367l25.453-14.547 26.668 56.969c2.4258 3.6367 6.0625 7.2734 10.91 7.2734s8.4844-2.4258 10.91-7.2734l32.727-65.453 14.547 16.969c2.4258 2.4258 6.0625 4.8477 9.6953 4.8477 3.6367 0 7.2734-2.4258 9.6953-4.8477l25.453-38.789 75.152 147.88c4.8477 8.4844 15.758 12.121 24.242 8.4844 8.4844-4.8477 12.121-15.758 8.4844-24.242l-52.121-104.24 96.969-198.79 27.879 43.637c2.4258 2.4258 4.8477 4.8477 8.4844 4.8477 3.6367 0 7.2734 0 9.6953-2.4258l31.516-24.242 67.879 98.184c2.4258 3.6367 6.0625 4.8477 9.6953 4.8477 3.6367 0 7.2734-2.4258 9.6953-6.0625l41.211-66.668 18.184 9.6953c2.4258 1.2109 6.0625 1.2109 9.6953 1.2109 3.6367-1.2109 6.0625-3.6367 7.2734-6.0625l23.031-50.91 282.43 573.33c3.6367 6.0625 9.6953 9.6953 15.758 9.6953 2.4258 0 4.8477 0 8.4844-2.4258 6.0664-3.6211 9.7031-14.527 4.8516-24.227zm-767.27-380.61-15.758-18.18c-2.4258-3.6367-6.0625-4.8477-10.91-3.6367-3.6367 0-7.2734 2.4258-9.6953 6.0625l-30.305 60.605-21.816-46.062c-1.2109-3.6367-3.6367-4.8477-7.2734-6.0625-3.6367-1.2109-7.2734 0-9.6953 1.2109l-26.668 15.758-21.816-33.938 92.121-180.61 86.062 170.91zm413.33-147.88-16.969-8.4844c-6.0625-2.4258-12.121-1.2109-15.758 4.8477l-37.574 60.605-64.242-93.332c-2.4258-2.4258-4.8477-4.8477-8.4844-4.8477s-7.2734 0-9.6953 2.4258l-30.305 24.242-29.09-43.637 117.57-240 118.79 242.43z"/>
</svg>
