<?xml version="1.0" encoding="UTF-8"?>
<svg width="1200pt" height="1200pt" version="1.1" viewBox="0 0 1200 1200" xmlns="http://www.w3.org/2000/svg">
 <path d="m465.6 351.6c-9.6016 9.6016-9.6016 24 0 33.602l223.2 223.2-211.2 212.4c-9.6016 9.6016-9.6016 24 0 33.602 4.8008 4.8008 10.801 7.1992 16.801 7.1992s12-2.3984 16.801-7.1992l244.8-244.8-256.8-258c-9.5977-9.6016-24-9.6016-33.598 0z" fill="#010101"/>
 <path d="m602.4 39.602c-310.8 0-564 253.2-564 564 0 310.8 253.2 564 564 564 310.8 0 564-253.2 564-564 0-310.8-253.2-564-564-564zm0 1078.8c-284.4 0-516-231.6-516-516 0-284.4 231.6-516 516-516 284.4 0 516 231.6 516 516 0 285.6-231.6 516-516 516z" fill="#010101"/>
</svg>
