<?xml version="1.0" encoding="UTF-8"?>
<svg width="1200pt" height="1200pt" version="1.1" viewBox="0 0 1200 1200" xmlns="http://www.w3.org/2000/svg">
 <path d="m757.22 226.31c-7.5469-12.938-19.688-22.312-34.312-26.156-30-7.9219-60.844 9.9375-68.859 39.938l-9.9375 37.453c-1.2188 0-2.2969-0.23438-3.4688-0.375l-8.0625-26.297c-9-29.625-40.453-46.547-70.219-37.453-16.688 5.0625-28.922 17.297-35.297 32.156-0.84375-0.60938-1.6875-1.3125-2.5312-1.9219-12.844-7.7812-27.938-10.219-42.609-6.7031-14.625 3.4688-27 12.469-34.781 25.312-2.5312 4.2188-4.3125 8.7656-5.7656 13.312-1.9219-1.5469-3.9375-3.2344-6.1406-4.6875-12.844-7.7812-27.938-10.219-42.609-6.7031-22.453 5.3906-38.531 23.625-42.234 45.141-41.156 11.766-83.391 27-126.47 44.766l-60.703-215.76-103.31 29.062 162.47 577.92 103.31-29.062-61.453-218.63c34.312-14.766 67.453-27.141 99.703-37.453l-0.9375 65.625c-0.70312 49.781 7.3125 98.859 23.859 145.92l2.625 7.5469c1.4531 4.0781 2.1562 8.3906 2.0625 12.938l-3.2344 371.29h20.625l3.2344-371.06c0.23438-6.8438-0.84375-13.547-3.1406-20.156l-2.625-7.5469c-15.703-44.766-23.297-91.453-22.688-138.84l0.84375-57.609c4.3125 12.141 12.234 22.547 23.391 29.391 12.844 7.9219 28.078 10.219 42.609 6.7031 14.297-3.4688 26.297-12.141 34.219-24.469 11.766 22.219 38.062 34.219 62.531 28.078 11.391-2.7656 21.234-8.8594 28.781-17.391 5.5312 4.7812 11.766 9 18.938 11.766l141 54.234-80.766 87.938c-9.2344 10.312-14.391 23.531-14.531 37.453l-1.2188 381.47h20.625l1.2188-381.37c0-8.7656 3.2344-17.156 9.1406-23.625l88.688-96.609c26.625 1.9219 52.688-14.531 62.766-40.547 5.5312-14.156 5.3906-29.391 0.46875-43.688 8.2969 3.9375 16.547 8.2969 24.938 12.609l-104.77 186.61 93.703 52.547 303.61-541.08-93.703-52.547-126.37 225.24c-54-28.547-108.61-50.156-164.29-64.547l7.3125-27.703c3.8438-14.531 1.7812-29.766-5.7656-42.703zm-92.297 53.391 9.1406-34.312c4.9219-19.219 25.078-30.469 43.688-25.312 19.078 5.0625 30.469 24.609 25.453 43.688l-7.4531 28.312-30.703 116.16-27.609-10.547-23.297-76.547 10.922-41.297zm-196.92 189c-5.0625 8.1562-12.844 13.781-22.078 16.078s-18.844 0.70312-27-4.2188-13.781-12.844-16.078-22.078l-2.1562-9-14.391-60.141-4.4531-18.703-3.2344-13.453-7.2188-29.859c-2.0625-8.5312-0.70312-16.922 2.8594-24.141 4.5469-9.1406 12.844-16.312 23.531-18.938 9.2344-2.2969 18.844-0.70312 27 4.2188 1.0781 0.70312 2.0625 1.5469 3 2.2969 6.4688 4.9219 11.062 11.766 12.938 19.781l7.4531 31.219 5.25 22.312 16.547 69.141 2.0625 8.2969c2.2969 9.2344 0.70312 18.844-4.2188 27zm74.531 19.688c-9.2344 2.2969-18.844 0.70312-27-4.2188s-13.781-12.844-16.078-22.078l-7.6875-32.062-14.531-60.234-5.25-22.312-11.391-47.297c-1.2188-5.0625-1.2188-10.219-0.23438-15.141 0.84375-4.0781 2.2969-8.1562 4.5469-11.859 4.9219-8.1562 12.844-13.781 22.078-16.078s18.844-0.70312 27 4.2188c3.4688 2.1562 6.375 4.7812 8.8594 7.9219 0 2.7656 0.46875 5.3906 0.9375 8.1562 0.375 2.1562 0.60938 4.3125 1.2188 6.375l24.375 80.297 0.375 1.4531 5.25 22.312 6.375 26.531c-0.9375 1.9219-2.1562 3.7031-2.8594 5.7656-0.46875 1.0781-0.60938 2.2969-0.9375 3.4688-5.625 17.531-3.2344 35.766 5.2969 50.859-5.0625 6.8438-12.141 11.766-20.391 13.781zm26.859-129.32-24.703-81.234c-0.23438-0.60938-0.23438-1.3125-0.375-2.0625-1.0781-4.3125-1.3125-8.5312-0.84375-12.703 1.6875-13.547 11.062-25.688 24.938-29.859 18.844-5.625 38.859 4.9219 44.531 23.766l5.7656 18.844 13.781 45.469 11.25 37.406 8.8594 29.297-11.859-4.5469c-1.0781-0.375-2.2969-0.60938-3.375-0.9375-3.2344-1.0781-6.6094-2.0625-9.9375-2.5312-3.4688-0.46875-6.9375-0.84375-10.453-0.70312-8.5312 0.23438-17.062 2.1562-25.078 5.3906-1.5469 0.70312-2.8594 1.6875-4.3125 2.3906-2.8594 1.5469-5.7656 3.2344-8.2969 5.2969l-2.8594-9.375-7.4062-24.281zm204 97.547 4.6875 1.7812c2.3906 0.9375 4.6875 2.1562 6.7031 3.375 30.469 17.062 26.156 65.297-6.375 76.922-4.7812 1.9219-9.8438 3-15 3.1406-3.9375 0-7.9219-0.60938-12-1.5469-1.5469-0.375-3-0.70312-4.5469-1.2188l-144.37-55.547c-6.1406-2.3906-11.297-6-15.469-10.453-3.1406-3.2344-5.7656-6.9375-7.6875-11.062-2.1562-4.3125-3.375-9-3.9375-13.922-0.60938-5.1562-0.23438-10.312 1.0781-15.609 0.375-1.6875 0.70313-3.375 1.3125-4.9219 0.23438-0.70312 0.70313-1.3125 1.0781-2.0625 0.375-0.84375 0.84375-1.7812 1.3125-2.625 0.9375-1.7812 2.0625-3.6094 3.375-5.2969 0.84375-1.2188 1.6875-2.3906 2.625-3.4688 3.9375-4.4531 8.8594-8.0625 14.391-10.547 0.375-0.14062 0.70313-0.23438 1.0781-0.375 3.2344-1.3125 6.6094-2.1562 9.9375-2.7656 3.6094-0.70312 7.2188-0.9375 10.688-0.23438 0.46875 0 0.9375 0 1.3125 0.14062 2.8594 0.375 5.8594 1.0781 8.7656 2.0625 0.375 0.14062 0.84375 0.23438 1.2188 0.375l26.859 10.312 11.625 4.4531 11.156 4.3125 15.844 6.1406 9.4688 3.7031 9.6094 3.7031 30.609 11.766 24.234 9.375z"/>
</svg>
