<?xml version="1.0" encoding="UTF-8"?>
<svg width="1200pt" height="1200pt" version="1.1" viewBox="0 0 1200 1200" xmlns="http://www.w3.org/2000/svg">
 <path d="m600 225c-24.582 0.41016-48.055 10.312-65.504 27.629-17.453 17.316-27.535 40.711-28.137 65.289l37.465 1.668v-0.003907c-0.21875-15.316 5.8164-30.062 16.711-40.828 10.895-10.77 25.707-16.633 41.023-16.234 15.312 0.39844 29.801 7.0195 40.125 18.34 10.32 11.32 15.582 26.359 14.566 41.645 0.46094 15.406-5.1953 30.367-15.738 41.609-10.543 11.246-25.109 17.855-40.512 18.387-4.9727-0.003906-9.7422 1.9727-13.258 5.4883-3.5195 3.5156-5.4922 8.2852-5.4922 13.262v105h37.5v-88.211c21.527-4.9727 40.703-17.164 54.348-34.543 13.645-17.379 20.93-38.898 20.652-60.992 0.45703-25.352-9.1523-49.848-26.727-68.125-17.574-18.277-41.676-28.84-67.023-29.379z"/>
 <path d="m618.75 543.75c0 10.355-8.3945 18.75-18.75 18.75s-18.75-8.3945-18.75-18.75 8.3945-18.75 18.75-18.75 18.75 8.3945 18.75 18.75z"/>
 <path d="m882.18 85.922c-19-5.8555-39.547-3.9375-57.137 5.3281s-30.789 25.129-36.703 44.109l35.816 11.098h-0.003906c2.9453-9.5 9.5469-17.441 18.348-22.078 8.8008-4.6328 19.082-5.582 28.582-2.6367 9.5 2.9453 17.441 9.543 22.078 18.344 4.6367 8.8008 5.5859 19.082 2.6406 28.582-2.9453 9.5-9.543 17.441-18.344 22.078-8.8008 4.6367-19.082 5.5859-28.582 2.6406-4.75-1.4805-9.8945-1.0117-14.297 1.3086-4.4023 2.3203-7.6992 6.2969-9.1602 11.051l-16.645 53.723 35.816 11.098 11.793-38.078h-0.003907c24.523 1.1758 48.07-9.7266 63.043-29.188 14.969-19.461 19.469-45.016 12.043-68.418-7.4258-23.402-25.832-41.688-49.285-48.961z"/>
 <path d="m833.5 306.39c1.4727-4.75 0.99609-9.8906-1.3203-14.289-2.3203-4.3984-6.2891-7.6953-11.039-9.168-4.75-1.4688-9.8906-0.99609-14.289 1.3242-4.3984 2.3164-7.6953 6.2891-9.168 11.035-1.4688 4.75-0.99609 9.8906 1.3242 14.289 2.3164 4.3984 6.2852 7.6953 11.035 9.168s9.8906 0.99609 14.289-1.3203c4.3984-2.3203 7.6953-6.2891 9.168-11.039z"/>
 <path d="m407.78 67.555c-9.4102-25.039-31.445-43.172-57.828-47.59-26.383-4.418-53.121 5.5547-70.172 26.164-17.051 20.613-21.836 48.746-12.551 73.832l35.156-13.094v0.003906c-3.4805-9.3203-3.1172-19.645 1.0156-28.695 4.1289-9.0508 11.688-16.09 21.008-19.566 9.3242-3.4805 19.645-3.1094 28.695 1.0234 9.0508 4.1328 16.086 11.691 19.562 21.016 3.4766 9.3203 3.1055 19.645-1.0312 28.691-4.1367 9.0508-11.699 16.086-21.023 19.559-4.6523 1.7422-8.4258 5.2578-10.492 9.7812-2.0625 4.5195-2.2461 9.6758-0.51172 14.332l19.629 52.707 35.156-13.094-13.934-37.344c13.633-9.5234 23.715-23.309 28.66-39.191 4.9453-15.879 4.4727-32.949-1.3438-48.531z"/>
 <path d="m383.36 216.74c-4.6562 1.7383-8.4297 5.2578-10.496 9.7773-2.0625 4.5234-2.2461 9.6797-0.50781 14.336l0.007813 0.015625c1.7266 4.668 5.2422 8.457 9.7695 10.531 4.5273 2.0742 9.6914 2.2617 14.359 0.51953 4.6641-1.7383 8.4453-5.2656 10.508-9.7969s2.2344-9.6992 0.48438-14.359l-0.007812-0.015625c-1.7383-4.6562-5.2539-8.4336-9.7773-10.5-4.5234-2.0625-9.6797-2.2461-14.34-0.50781z"/>
 <path d="m1106.2 391.33c-37.961-26.434-65.379-65.414-77.422-110.08-26.434 37.961-65.414 65.379-110.08 77.422 37.961 26.434 65.379 65.414 77.422 110.08 26.434-37.961 65.414-65.379 110.08-77.422z"/>
 <path d="m75 453.11c32.047 28.34 53.07 67.078 59.359 109.39 28.34-32.047 67.078-53.066 109.39-59.359-32.047-28.34-53.066-67.078-59.359-109.39-28.34 32.047-67.078 53.066-109.39 59.359z"/>
 <path d="m620.98 666.13 33.031 17.742c38.656-72.629 94.496-134.69 162.65-180.78 33.719-22.48 70.109-40.676 108.32-54.16l-12.488-35.359h0.003906c-41.164 14.531-80.355 34.125-116.68 58.34-73.254 49.504-133.28 116.18-174.85 194.22z"/>
 <path d="m246.7 449.77c22.84-3.7266 46.133-3.7344 68.977-0.027343 145.79 24.297 216.54 197.3 229.23 231.75l35.195-12.98c-13.973-37.848-92.027-228.06-258.27-255.75l-0.003906 0.003906c-26.828-4.3984-54.195-4.4062-81.027-0.027343z"/>
 <path d="m518.54 907.71c-0.97266 0-1.9375-0.10547-2.8867-0.32031l-241.51-53.531v247.66l311.78 79.473 0.41406-346.5-57.484 68.379c-2.5547 3.0547-6.3281 4.8242-10.309 4.8359z"/>
 <path d="m925.86 853.86-241.51 53.531c-0.94922 0.21484-1.9141 0.32031-2.8867 0.32031-3.9805-0.011719-7.7539-1.7773-10.309-4.832l-57.672-68.605-0.41406 346.98 312.79-79.73z"/>
 <path d="m464.23 721.91v-28.164l-179 34.219 0.35547 1.9492-79.332 80.887 312.28 69.207 81.469-96.898-236.49-41.945z"/>
 <path d="m914.42 729.92 0.35547-1.9492-179-34.219v28.164l100.72 19.254-236.49 41.945 81.469 96.898 312.28-69.207z"/>
</svg>
