<?xml version="1.0" encoding="UTF-8"?>
<svg width="1200pt" height="1200pt" version="1.1" viewBox="0 0 1200 1200" xmlns="http://www.w3.org/2000/svg">
 <path d="m1114.1 1060.9-277.88-277.5c71.617-85.242 107.56-194.84 100.33-305.94-7.2305-111.1-57.078-215.12-139.14-290.36-82.062-75.242-190-115.89-301.31-113.48-111.3 2.4102-217.39 47.703-296.11 126.43-78.727 78.723-124.02 184.8-126.43 296.11-2.4102 111.31 38.242 219.25 113.48 301.31 75.242 82.059 179.26 131.91 290.36 139.14 111.1 7.2305 220.7-28.711 305.94-100.33l277.5 277.88c7.0781 7.0195 16.656 10.934 26.625 10.875 9.9688 0.058594 19.547-3.8555 26.625-10.875 7.0977-7.043 11.094-16.625 11.094-26.625s-3.9961-19.582-11.094-26.625zm-964.12-554.62c0-94.484 37.535-185.1 104.34-251.91s157.42-104.34 251.91-104.34 185.1 37.535 251.91 104.34 104.34 157.42 104.34 251.91-37.535 185.1-104.34 251.91-157.42 104.34-251.91 104.34c-94.453-0.097656-185.01-37.664-251.8-104.45s-104.36-157.34-104.45-251.8z"/>
</svg>
