<?xml version="1.0" encoding="UTF-8"?>
<svg width="1200pt" height="1200pt" version="1.1" viewBox="0 0 1200 1200" xmlns="http://www.w3.org/2000/svg">
 <path d="m1181.6 854.34c0-9.6562-7.8281-17.438-17.438-17.438h-21.094l27.094-27.094c6.8906-6.8906 6.8906-17.812 0-24.75-6.8906-6.8906-17.812-6.8906-24.75 0l-51.797 51.797h-40.734l12.75-12.75c6.8906-6.8906 6.8906-17.812 0-24.75-6.8906-6.8906-17.812-6.8906-24.75 0l-37.453 37.453h-101.48l8.3438-8.3438s0.1875 0 0.1875-0.1875l63.281-63.281h52.922c9.6562 0 17.438-7.8281 17.438-17.438 0-9.6562-7.8281-17.438-17.438-17.438h-18l28.734-28.734h73.078c9.6562 0 17.438-7.8281 17.438-17.438 0-9.6562-7.8281-17.438-17.438-17.438h-38.203l14.906-14.906c6.8906-6.8906 6.8906-17.812 0-24.75-6.8906-6.8906-17.812-6.8906-24.75 0l-14.906 14.906v-38.203c0-9.6562-7.8281-17.438-17.438-17.438-9.6562 0-17.438 7.8281-17.438 17.438v73.078l-28.734 28.734v-18c0-9.6562-7.8281-17.438-17.438-17.438-9.6562 0-17.438 7.8281-17.438 17.438v52.922l-62.906 62.906s-0.1875 0-0.1875 0.1875l-8.5312 8.5312v-101.44l37.453-37.453c6.8906-6.8906 6.8906-17.812 0-24.75-6.8906-6.8906-17.812-6.8906-24.75 0l-12.75 12.75v-40.734l51.656-51.656c6.8906-6.8906 6.8906-17.812 0-24.75-6.8906-6.8906-17.812-6.8906-24.75 0l-26.906 26.906v-21.094c0-9.6562-7.8281-17.438-17.438-17.438-9.6562 0-17.438 7.8281-17.438 17.438v21.094l-27.094-27.094c-6.8906-6.8906-17.812-6.8906-24.75 0-6.8906 6.8906-6.8906 17.812 0 24.75l51.797 51.797v40.734l-12.75-12.75c-6.8906-6.8906-17.812-6.8906-24.75 0-6.8906 6.8906-6.8906 17.812 0 24.75l37.453 37.453v101.44l-71.812-71.812v-52.922c0-9.6562-7.8281-17.438-17.438-17.438-9.6562 0-17.438 7.8281-17.438 17.438v18l-28.734-28.734 0.09375-72.75c0-9.6562-7.8281-17.438-17.438-17.438-9.6562 0-17.438 7.8281-17.438 17.438v38.203l-14.906-14.906c-6.8906-6.8906-17.812-6.8906-24.75 0-6.8906 6.8906-6.8906 17.812 0 24.75l14.906 14.906h-38.203c-9.6562 0-17.438 7.8281-17.438 17.438 0 9.6562 7.8281 17.438 17.438 17.438h73.078l28.734 28.734h-18c-9.6562 0-17.438 7.8281-17.438 17.438 0 9.6562 7.8281 17.438 17.438 17.438h52.922l71.625 71.625h-101.44l-37.453-37.453c-6.8906-6.8906-17.812-6.8906-24.75 0-6.8906 6.8906-6.8906 17.812 0 24.75l12.75 12.75h-40.734l-51.656-51.656c-6.8906-6.8906-17.812-6.8906-24.75 0-6.8906 6.8906-6.8906 17.812 0 24.75l26.906 26.906h-21.094c-9.6562 0-17.438 7.8281-17.438 17.438 0 9.6562 7.8281 17.438 17.438 17.438h21.094l-27.094 27.094c-6.8906 6.8906-6.8906 17.812 0 24.75 3.4688 3.4688 7.8281 5.1094 12.375 5.1094s8.9062-1.6406 12.375-5.1094l51.797-51.797h40.734l-12.75 12.75c-6.8906 6.8906-6.8906 17.812 0 24.75 3.4688 3.4688 7.8281 5.1094 12.375 5.1094s8.9062-1.6406 12.375-5.1094l37.453-37.453h101.44l-71.812 71.812h-52.922c-9.6562 0-17.438 7.8281-17.438 17.438 0 9.6562 7.8281 17.438 17.438 17.438h18l-28.734 28.734h-73.078c-9.6562 0-17.438 7.8281-17.438 17.438 0 9.6562 7.8281 17.438 17.438 17.438h38.203l-14.906 14.906c-6.8906 6.8906-6.8906 17.812 0 24.75 3.4688 3.4688 7.8281 5.1094 12.375 5.1094s8.9062-1.6406 12.375-5.1094l14.906-14.906v38.203c0 9.6562 7.8281 17.438 17.438 17.438 9.6562 0 17.438-7.8281 17.438-17.438v-73.078l28.734-28.734v18c0 9.6562 7.8281 17.438 17.438 17.438 9.6562 0 17.438-7.8281 17.438-17.438v-52.922l71.812-71.812v101.62l-37.453 37.453c-6.8906 6.8906-6.8906 17.812 0 24.75 6.8906 6.8906 17.812 6.8906 24.75 0l12.75-12.75v40.734l-51.656 51.656c-6.8906 6.8906-6.8906 17.812 0 24.75 6.8906 6.8906 17.812 6.8906 24.75 0l26.906-26.906v21.094c0 9.6562 7.8281 17.438 17.438 17.438 9.6562 0 17.438-7.8281 17.438-17.438v-21.094l27.094 27.094c3.4688 3.4688 7.8281 5.1094 12.375 5.1094s8.9062-1.6406 12.375-5.1094c6.8906-6.8906 6.8906-17.812 0-24.75l-51.797-51.797v-40.734l12.75 12.75c3.4688 3.4688 7.8281 5.1094 12.375 5.1094s8.9062-1.6406 12.375-5.1094c6.8906-6.8906 6.8906-17.812 0-24.75l-37.453-37.453v-101.67l8.3438 8.3438s0 0.1875 0.1875 0.1875l63.281 63.281v52.922c0 9.6562 7.8281 17.438 17.438 17.438 9.6562 0 17.438-7.8281 17.438-17.438v-18l28.734 28.734v73.078c0 9.6562 7.8281 17.438 17.438 17.438 9.6562 0 17.438-7.8281 17.438-17.438v-38.203l14.906 14.906c3.4688 3.4688 7.8281 5.1094 12.375 5.1094s8.9062-1.6406 12.375-5.1094c6.8906-6.8906 6.8906-17.812 0-24.75l-14.906-14.906h38.203c9.6562 0 17.438-7.8281 17.438-17.438 0-9.6562-7.8281-17.438-17.438-17.438h-73.078l-28.734-28.734h18c9.6562 0 17.438-7.8281 17.438-17.438 0-9.6562-7.8281-17.438-17.438-17.438h-52.922l-62.906-62.906s0-0.1875-0.1875-0.1875l-8.5312-8.5312h101.62l37.453 37.453c3.4688 3.4688 7.8281 5.1094 12.375 5.1094s8.9062-1.6406 12.375-5.1094c6.8906-6.8906 6.8906-17.812 0-24.75l-12.75-12.75h40.734l51.656 51.656c3.4688 3.4688 7.8281 5.1094 12.375 5.1094s8.9062-1.6406 12.375-5.1094c6.8906-6.8906 6.8906-17.812 0-24.75l-26.906-26.906h21.094c9.1875 0.14062 17.016-7.875 17.016-17.531z"/>
 <path d="m543.1 573.1c3.4688 3.4688 7.8281 5.1094 12.375 5.1094s8.9062-1.6406 12.375-5.1094c6.8906-6.8906 6.8906-17.812 0-24.75l-14.906-14.906h38.203c9.6562 0 17.438-7.8281 17.438-17.438 0-9.6562-7.8281-17.438-17.438-17.438h-73.078l-28.734-28.734h18c9.6562 0 17.438-7.8281 17.438-17.438 0-9.6562-7.8281-17.438-17.438-17.438h-52.922l-62.906-62.906s0-0.1875-0.1875-0.1875l-8.5312-8.5312h101.44l37.453 37.453c3.4688 3.4688 7.8281 5.1094 12.375 5.1094s8.9062-1.6406 12.375-5.1094c6.8906-6.8906 6.8906-17.812 0-24.75l-12.75-12.75h40.734l51.656 51.656c3.4688 3.4688 7.8281 5.1094 12.375 5.1094s8.9062-1.6406 12.375-5.1094c6.8906-6.8906 6.8906-17.812 0-24.75l-26.906-26.906h21.094c9.6562 0 17.438-7.8281 17.438-17.438 0-9.6562-7.8281-17.438-17.438-17.438h-21.094l27.094-27.094c6.8906-6.8906 6.8906-17.812 0-24.75-6.8906-6.8906-17.812-6.8906-24.75 0l-51.797 51.797h-40.734l12.75-12.75c6.8906-6.8906 6.8906-17.812 0-24.75-6.8906-6.8906-17.812-6.8906-24.75 0l-37.453 37.453h-101.48l8.3438-8.3438s0.1875 0 0.1875-0.1875l63.281-63.281h52.922c9.6562 0 17.438-7.8281 17.438-17.438 0-9.6562-7.8281-17.438-17.438-17.438h-18l28.734-28.734h73.078c9.6562 0 17.438-7.8281 17.438-17.438 0-9.6562-7.8281-17.438-17.438-17.438h-38.203l14.906-14.906c6.8906-6.8906 6.8906-17.812 0-24.75-6.8906-6.8906-17.812-6.8906-24.75 0l-14.906 14.906v-38.203c0-9.6562-7.8281-17.438-17.438-17.438-9.6562 0-17.438 7.8281-17.438 17.438v73.078l-28.734 28.734-0.046875-18.141c0-9.6562-7.8281-17.438-17.438-17.438-9.6562 0-17.438 7.8281-17.438 17.438v52.922l-62.906 62.906s-0.1875 0-0.1875 0.1875l-8.5312 8.5312-0.046875-101.48 37.453-37.453c6.8906-6.8906 6.8906-17.812 0-24.75-6.8906-6.8906-17.812-6.8906-24.75 0l-12.75 12.75 0.046875-40.688 51.656-51.656c6.8906-6.8906 6.8906-17.812 0-24.75-6.8906-6.8906-17.812-6.8906-24.75 0l-26.906 26.906v-20.906c0-9.6562-7.8281-17.438-17.438-17.438-9.6562 0-17.438 7.8281-17.438 17.438v21.094l-27.094-27.094c-6.8906-6.8906-17.812-6.8906-24.75 0-6.8906 6.8906-6.8906 17.812 0 24.75l51.797 51.797v40.734l-12.75-12.75c-6.8906-6.8906-17.812-6.8906-24.75 0-6.8906 6.8906-6.8906 17.812 0 24.75l37.453 37.453v101.44l-71.812-71.812 0.046875-52.875c0-9.6562-7.8281-17.438-17.438-17.438-9.6562 0-17.438 7.8281-17.438 17.438v18l-29.297-28.922v-73.078c0-9.6562-7.8281-17.438-17.438-17.438-9.6562 0-17.438 7.8281-17.438 17.438v38.203l-14.953-14.953c-6.8906-6.8906-17.812-6.8906-24.75 0-6.8906 6.8906-6.8906 17.812 0 24.75l14.906 14.906h-38.203c-9.6562 0-17.438 7.8281-17.438 17.438 0 9.6562 7.8281 17.438 17.438 17.438h73.078l28.734 28.734h-17.953c-9.6562 0-17.438 7.8281-17.438 17.438 0 9.6562 7.8281 17.672 17.438 17.672h52.922l71.625 71.625h-101.44l-37.453-37.453c-6.8906-6.8906-17.812-6.8906-24.75 0-6.8906 6.8906-6.8906 17.812 0 24.75l12.75 12.75h-40.734l-51.422-51.656c-6.8906-6.8906-17.812-6.8906-24.75 0-6.8906 6.8906-6.8906 17.812 0 24.75l26.906 26.906h-21.094c-9.6562 0-17.438 7.8281-17.438 17.438 0 9.6562 7.8281 17.438 17.438 17.438h21.094l-27.094 27.094c-6.8906 6.8906-6.8906 17.812 0 24.75 3.4688 3.4688 7.8281 5.1094 12.375 5.1094 4.5469-0.046875 9.0938-1.6875 12.562-5.1094l51.797-51.797h40.734l-12.75 12.75c-6.8906 6.8906-6.8906 17.812 0 24.75 3.4688 3.4688 7.8281 5.1094 12.375 5.1094s8.9062-1.6406 12.375-5.1094l37.453-37.453h101.44l-71.812 71.812-53.109-0.09375c-9.6562 0-17.438 7.8281-17.438 17.438 0 9.6562 7.8281 17.438 17.438 17.438h18l-28.734 28.734-73.266 0.046875c-9.6562 0-17.438 7.8281-17.438 17.438 0 9.6562 7.8281 17.438 17.438 17.438h38.203l-14.906 14.906c-6.8906 6.8906-6.8906 17.812 0 24.75 3.4688 3.4688 7.8281 5.1094 12.375 5.1094s8.9062-1.6406 12.375-5.1094l14.906-14.906v38.203c0 9.6562 7.8281 17.438 17.438 17.438 9.6562 0 17.438-7.8281 17.438-17.438v-73.078l28.734-28.734v18c0 9.6562 7.8281 17.438 17.438 17.438 9.6562 0 17.438-7.8281 17.438-17.438v-52.922l71.812-71.812v101.62l-37.453 37.453c-6.8906 6.8906-6.8906 17.812 0 24.75 3.4688 3.4688 7.8281 5.1094 12.375 5.1094s8.9062-1.6406 12.375-5.1094l12.75-12.75v40.734l-51.656 51.656c-6.8906 6.8906-6.8906 17.812 0 24.75 6.8906 6.8906 17.812 6.8906 24.75 0l26.906-26.906v21.094c0 9.6562 7.8281 17.438 17.438 17.438 9.6562 0 17.438-7.8281 17.438-17.438v-21.094l27.094 27.094c3.4688 3.4688 7.8281 5.1094 12.375 5.1094s8.9062-1.6406 12.375-5.1094c6.8906-6.8906 6.8906-17.812 0-24.75l-51.797-51.797v-40.734l12.75 12.75c6.8906 6.8906 18 6.8906 24.75 0 6.8906-6.8906 6.8906-17.812 0-24.75l-37.453-37.453v-101.67l8.3438 8.3438s0 0.1875 0.1875 0.1875l63.281 63.281v52.922c0 9.6562 7.8281 17.438 17.438 17.438 9.6562 0 17.438-7.8281 17.438-17.438v-17.859l28.734 28.734v73.078c0 9.6562 7.8281 17.438 17.438 17.438 9.6562 0 17.438-7.8281 17.438-17.438v-38.203z"/>
</svg>
