<?xml version="1.0" encoding="UTF-8"?>
<svg width="1200pt" height="1200pt" version="1.1" viewBox="0 0 1200 1200" xmlns="http://www.w3.org/2000/svg">
 <path d="m917.81 742.97-27 9.9375c36.844-67.781 47.672-124.97 48.188-128.06l12.047-67.594-52.688 44.016c-44.906 37.406-85.734 32.766-111.98 22.5 51.844-56.766 46.547-175.55 45.609-191.34l-2.25-37.688-33.844 16.828c-54.047 26.906-107.95 39.422-117.66 32.531 0-0.09375-5.3438-13.312 22.594-62.25 37.266-65.25 47.484-125.44 30.516-178.97-23.297-73.453-89.859-105.23-92.672-106.59l-61.641-28.781 28.359 61.828c13.547 29.578 26.109 69.516 9.0469 91.641-23.484 30.562-96.703 25.688-120.47 21.75l-13.641-2.3438-9.2344 10.266c-65.25 72.609-70.734 140.39-61.453 188.11-18.75-15.656-39.141-35.719-55.688-54.703l-39.75-45.656-4.0312 60.422c-4.9688 74.672 13.453 135.94 38.062 183.1l-11.531-11.25-13.5 35.719c-18.797 49.641-16.969 101.77 4.2656 153.28l-45.328-16.688-50.156 136.55 157.64 57.75-157.64 58.078 50.156 136.64 317.81-117.14 317.81 117.14 50.156-136.64-157.64-58.078 157.64-57.75-50.156-136.6zm-556.82-81.609c32.484 26.109 76.406 52.594 107.48 38.016l38.062-17.953-33.984-24.844c-4.3594-3.1406-93.234-69.703-110.3-192.56 29.391 26.812 66.141 53.531 95.578 53.531l49.547-0.14062-29.578-39.891c-2.5312-3.4688-59.859-83.25 22.031-183.56 34.312 3.9844 116.06 7.0781 154.18-42.422 12.422-16.031 18.656-35.438 18.703-57.891 4.3594 7.3125 8.2031 15.469 11.016 24.328 12.609 39.656 3.75 86.438-26.25 138.98-21.047 36.797-45.656 89.438-15.891 120.89 29.531 31.312 93.938 13.641 140.58-5.2969-2.3906 51.094-15 117.47-49.688 128.86l-41.531 13.641 32.859 28.828c26.25 23.062 84.188 50.578 148.97 28.781-11.672 30.656-30.281 69.938-59.203 108.47l-213.56 78.75-202.08-74.719c-29.062-42.141-41.391-83.719-36.938-123.94zm-49.078 406.5-15.703-42.703 165.89-61.172 65.766 24.281zm353.53-130.6 238.4 87.891-15.703 42.703-288.14-106.22-65.766-24.281 0.32813-0.14062-79.453-29.109-2.4844-0.9375-156.47-57.281 15.703-42.797 288.1 106.31 288.14-106.27 15.703 42.75-238.4 87.328z"/>
</svg>
