<?xml version="1.0" encoding="UTF-8"?>
<svg width="1200pt" height="1200pt" version="1.1" viewBox="0 0 1200 1200" xmlns="http://www.w3.org/2000/svg">
 <path d="m65.672 612.14c-6.7031 7.0312-17.812 7.3125-24.844 0.60938s-7.3125-17.859-0.65625-24.891c15.938-16.734 34.969-29.812 55.781-38.719 20.812-8.9531 43.359-13.688 66.375-13.688 59.953 0 90.328 25.547 120.74 51.047 25.453 21.375 50.906 42.75 98.109 42.75 47.156 0 72.656-21.375 98.109-42.75 30.375-25.5 60.75-51.047 120.71-51.047 59.957 0 90.328 25.547 120.71 51.047 25.453 21.375 50.953 42.75 98.109 42.75 47.203 0 72.656-21.375 98.109-42.75 30.375-25.5 60.797-51.047 120.71-51.047 23.016 0 45.609 4.7344 66.422 13.688 20.812 8.9062 39.797 22.031 55.734 38.719 6.7031 7.0312 6.4219 18.188-0.60938 24.891s-18.188 6.4219-24.844-0.60938c-12.609-13.219-27.609-23.578-44.062-30.609-16.406-7.0312-34.312-10.781-52.641-10.781-47.156 0-72.656 21.375-98.062 42.75-30.422 25.5-60.797 51.047-120.74 51.047-59.945 0-90.328-25.547-120.71-51.047-25.453-21.375-50.906-42.75-98.109-42.75-47.203 0-72.656 21.375-98.109 42.75-30.375 25.5-60.797 51.047-120.71 51.047-59.953 0-90.375-25.547-120.74-51.047-25.406-21.375-50.906-42.75-98.109-42.75-18.328 0-36.188 3.75-52.594 10.781-16.453 7.0312-31.453 17.391-44.062 30.609zm0-291.05c-6.7031 7.0312-17.812 7.3125-24.844 0.65625-7.0312-6.7031-7.3125-17.859-0.65625-24.891 15.938-16.734 34.969-29.859 55.781-38.766s43.359-13.641 66.375-13.641c59.953 0 90.375 25.5 120.74 51 25.453 21.375 50.906 42.797 98.109 42.797 47.156 0 72.609-21.422 98.109-42.75 30.375-25.547 60.75-51.047 120.71-51.047 59.957 0 90.328 25.5 120.71 51.047 25.453 21.328 50.953 42.75 98.109 42.75 47.203 0 72.656-21.422 98.109-42.797 30.375-25.5 60.797-51 120.71-51 23.016 0 45.609 4.7344 66.422 13.641s39.797 22.031 55.734 38.766c6.7031 7.0312 6.4219 18.188-0.60938 24.891-7.0312 6.6562-18.188 6.375-24.844-0.65625-12.609-13.172-27.609-23.531-44.062-30.609-16.406-7.0312-34.312-10.734-52.641-10.734-47.156 0-72.656 21.375-98.062 42.75-30.422 25.5-60.797 51.047-120.74 51.047-59.945 0-90.328-25.547-120.71-51.047-25.453-21.375-50.906-42.75-98.109-42.75-47.203 0-72.656 21.375-98.109 42.75-30.375 25.5-60.797 51.047-120.71 51.047-59.953 0-90.375-25.547-120.74-51.047-25.453-21.375-50.906-42.75-98.109-42.75-18.328 0-36.188 3.75-52.594 10.734-16.453 7.0781-31.453 17.391-44.062 30.609zm0 582.05c-6.7031 7.0312-17.812 7.3125-24.844 0.60938s-7.3125-17.812-0.65625-24.844c15.938-16.734 34.969-29.859 55.781-38.766s43.359-13.688 66.375-13.688c59.953 0 90.328 25.547 120.74 51.047 25.453 21.375 50.906 42.75 98.109 42.75 47.156 0 72.656-21.375 98.109-42.75 30.375-25.5 60.75-51.047 120.71-51.047 59.957 0 90.328 25.547 120.71 51.047 25.453 21.375 50.953 42.75 98.109 42.75 47.203 0 72.656-21.375 98.109-42.75 30.375-25.5 60.797-51.047 120.71-51.047 23.016 0 45.609 4.7344 66.422 13.688 20.812 8.9062 39.797 22.031 55.734 38.766 6.7031 7.0312 6.4219 18.141-0.60938 24.844s-18.188 6.4219-24.844-0.60938c-12.609-13.219-27.609-23.578-44.062-30.609-16.406-7.0312-34.312-10.781-52.641-10.781-47.156 0-72.656 21.375-98.062 42.797-30.422 25.5-60.797 51-120.74 51-59.945 0-90.328-25.5-120.71-51-25.453-21.375-50.906-42.797-98.109-42.797-47.203 0-72.656 21.375-98.109 42.797-30.375 25.5-60.797 51-120.71 51-59.953 0-90.375-25.5-120.74-51-25.406-21.375-50.906-42.797-98.109-42.797-18.328 0-36.188 3.75-52.594 10.781-16.453 7.0312-31.453 17.391-44.062 30.609"/>
</svg>
